<?xml version="1.0" encoding="utf-8"?>
<!-- Generator: Adobe Illustrator 23.0.6, SVG Export Plug-In . SVG Version: 6.00 Build 0)  -->
<svg version="1.1" id="Calque_1" xmlns="http://www.w3.org/2000/svg" xmlns:xlink="http://www.w3.org/1999/xlink" width="355" height="120"
	 xml:space="preserve">
<style type="text/css">
	.st0{fill:none;}
	.st1{fill:#878787;}
	.st2{fill:#FFE614;}
	.colour-class{fill:#ffeb1e;}
</style>
<g>
	<rect y="0" class="st0" width="350" height="120"/>
	<g>
		<g>
			<g>
				<g>
					<g>
						<g>
							<path class="st1" d="M54.2,103.1l1.7-5.6h1.7L55,105h-1.6l-2.6-7.4h1.7L54.2,103.1z"/>
						</g>
						<g>
							<path class="st1" d="M63.9,101.8h-2.9v2h3.4v1.2h-5v-7.4h4.9v1.2h-3.4v1.8h2.9C63.9,100.6,63.9,101.8,63.9,101.8z"/>
						</g>
						<g>
							<path class="st1" d="M69.1,102.3h-1.2v2.7h-1.5v-7.4h2.7c0.9,0,1.5,0.2,2,0.6c0.5,0.4,0.7,0.9,0.7,1.6c0,0.5-0.1,0.9-0.3,1.3
								c-0.2,0.3-0.5,0.6-1,0.8l1.6,3v0.1h-1.6L69.1,102.3z M67.9,101h1.2c0.4,0,0.7-0.1,0.9-0.3s0.3-0.5,0.3-0.8
								c0-0.3-0.1-0.6-0.3-0.8c-0.2-0.2-0.5-0.3-0.9-0.3h-1.2V101z"/>
						</g>
						<g>
							<path class="st1" d="M76.9,102.3h-1.2v2.7h-1.5v-7.4h2.7c0.9,0,1.5,0.2,2,0.6c0.5,0.4,0.7,0.9,0.7,1.6c0,0.5-0.1,0.9-0.3,1.3
								c-0.2,0.3-0.5,0.6-1,0.8l1.6,3v0.1h-1.6L76.9,102.3z M75.7,101h1.2c0.4,0,0.7-0.1,0.9-0.3s0.3-0.5,0.3-0.8
								c0-0.3-0.1-0.6-0.3-0.8c-0.2-0.2-0.5-0.3-0.9-0.3h-1.2V101z"/>
						</g>
						<g>
							<path class="st1" d="M86.1,103.5h-2.7l-0.5,1.5h-1.6l2.8-7.4h1.4l2.8,7.4h-1.6L86.1,103.5z M83.9,102.2h1.8l-0.9-2.8
								L83.9,102.2z"/>
						</g>
						<g>
							<path class="st1" d="M93.9,103c0-0.3-0.1-0.5-0.3-0.7c-0.2-0.2-0.6-0.3-1.1-0.5c-0.5-0.2-0.9-0.3-1.3-0.5
								c-0.8-0.5-1.3-1.1-1.3-1.8c0-0.4,0.1-0.8,0.3-1.1c0.2-0.3,0.5-0.6,1-0.7s0.9-0.3,1.4-0.3c0.5,0,1,0.1,1.4,0.3
								c0.4,0.2,0.7,0.5,1,0.8c0.2,0.3,0.3,0.7,0.3,1.2h-1.5c0-0.3-0.1-0.6-0.3-0.8c-0.2-0.2-0.5-0.3-0.9-0.3
								c-0.4,0-0.7,0.1-0.9,0.2c-0.2,0.2-0.3,0.4-0.3,0.6c0,0.2,0.1,0.4,0.4,0.6c0.2,0.2,0.6,0.3,1.1,0.5c0.9,0.3,1.5,0.6,1.9,1
								c0.4,0.4,0.6,0.9,0.6,1.4c0,0.6-0.2,1.1-0.7,1.5c-0.5,0.4-1.1,0.5-2,0.5c-0.6,0-1.1-0.1-1.6-0.3s-0.8-0.5-1.1-0.9
								c-0.2-0.4-0.4-0.8-0.4-1.3h1.5c0,0.8,0.5,1.2,1.5,1.2c0.4,0,0.6-0.1,0.8-0.2C93.8,103.5,93.9,103.3,93.9,103z"/>
						</g>
						<g>
							<path class="st1" d="M101.4,103c0-0.3-0.1-0.5-0.3-0.7c-0.2-0.2-0.6-0.3-1.1-0.5c-0.5-0.2-0.9-0.3-1.3-0.5
								c-0.8-0.5-1.3-1.1-1.3-1.8c0-0.4,0.1-0.8,0.3-1.1c0.2-0.3,0.5-0.6,1-0.7s0.9-0.3,1.4-0.3c0.5,0,1,0.1,1.4,0.3
								c0.4,0.2,0.7,0.5,1,0.8c0.2,0.3,0.3,0.7,0.3,1.2h-1.5c0-0.3-0.1-0.6-0.3-0.8c-0.2-0.2-0.5-0.3-0.9-0.3
								c-0.4,0-0.7,0.1-0.9,0.2c-0.2,0.2-0.3,0.4-0.3,0.6c0,0.2,0.1,0.4,0.4,0.6c0.2,0.2,0.6,0.3,1.1,0.5c0.9,0.3,1.5,0.6,1.9,1
								c0.4,0.4,0.6,0.9,0.6,1.4c0,0.6-0.2,1.1-0.7,1.5c-0.5,0.4-1.1,0.5-2,0.5c-0.6,0-1.1-0.1-1.6-0.3s-0.8-0.5-1.1-0.9
								c-0.2-0.4-0.4-0.8-0.4-1.3h1.5c0,0.8,0.5,1.2,1.5,1.2c0.4,0,0.6-0.1,0.8-0.2S101.4,103.3,101.4,103z"/>
						</g>
						<g>
							<path class="st1" d="M109.6,101.8h-2.9v2h3.4v1.2h-5v-7.4h4.9v1.2h-3.4v1.8h2.9V101.8z"/>
						</g>
						<g>
							<path class="st1" d="M118.1,105h-1.5l-3-4.9v4.9h-1.5v-7.4h1.5l3,4.9v-4.9h1.5L118.1,105L118.1,105z"/>
						</g>
						<g>
							<path class="st1" d="M120.6,105v-7.4h2.3c0.6,0,1.2,0.1,1.7,0.4c0.5,0.3,0.9,0.7,1.2,1.2c0.3,0.5,0.4,1.2,0.4,1.8v0.3
								c0,0.7-0.1,1.3-0.4,1.8c-0.3,0.5-0.7,0.9-1.2,1.2c-0.5,0.3-1.1,0.4-1.7,0.4L120.6,105L120.6,105z M122.1,98.8v4.9h0.7
								c0.6,0,1.1-0.2,1.4-0.6c0.3-0.4,0.5-0.9,0.5-1.7v-0.4c0-0.8-0.2-1.3-0.5-1.7c-0.3-0.4-0.8-0.6-1.4-0.6H122.1z"/>
						</g>
						<g>
							<path class="st1" d="M135,103.1l1.7-5.6h1.7l-2.6,7.4h-1.6l-2.6-7.4h1.7L135,103.1z"/>
						</g>
						<g>
							<path class="st1" d="M141.7,103.8h3.2v1.2h-4.8v-7.4h1.5L141.7,103.8L141.7,103.8z"/>
						</g>
						<g>
							<path class="st1" d="M152.7,101.5c0,0.7-0.1,1.4-0.4,1.9s-0.6,1-1.1,1.3c-0.5,0.3-1,0.4-1.6,0.4c-0.6,0-1.2-0.1-1.6-0.4
								c-0.5-0.3-0.9-0.7-1.1-1.3c-0.3-0.5-0.4-1.2-0.4-1.9v-0.4c0-0.7,0.1-1.4,0.4-1.9c0.3-0.6,0.6-1,1.1-1.3
								c0.5-0.3,1-0.4,1.6-0.4c0.6,0,1.2,0.1,1.6,0.4c0.5,0.3,0.9,0.7,1.1,1.3c0.3,0.6,0.4,1.2,0.4,1.9L152.7,101.5L152.7,101.5z
								 M151.1,101.1c0-0.8-0.1-1.4-0.4-1.8c-0.3-0.4-0.7-0.6-1.2-0.6c-0.5,0-0.9,0.2-1.2,0.6s-0.4,1-0.4,1.7v0.4
								c0,0.8,0.1,1.3,0.4,1.8s0.7,0.6,1.2,0.6c0.5,0,0.9-0.2,1.2-0.6c0.3-0.4,0.4-1,0.4-1.8L151.1,101.1L151.1,101.1z"/>
						</g>
						<g>
							<path class="st1" d="M160.1,98.8h-2.3v6.2h-1.5v-6.2h-2.2v-1.2h6L160.1,98.8L160.1,98.8z"/>
						</g>
						<g>
							<path class="st1" d="M168.2,103.1l1.7-5.6h1.7L169,105h-1.6l-2.6-7.4h1.7L168.2,103.1z"/>
						</g>
						<g>
							<path class="st1" d="M177.9,101.8H175v2h3.4v1.2h-5v-7.4h4.9v1.2H175v1.8h2.9L177.9,101.8L177.9,101.8z"/>
						</g>
						<g>
							<path class="st1" d="M183.2,102.3h-1.2v2.7h-1.5v-7.4h2.7c0.9,0,1.5,0.2,2,0.6c0.5,0.4,0.7,0.9,0.7,1.6
								c0,0.5-0.1,0.9-0.3,1.3c-0.2,0.3-0.5,0.6-1,0.8l1.6,3v0.1h-1.6L183.2,102.3z M181.9,101h1.2c0.4,0,0.7-0.1,0.9-0.3
								s0.3-0.5,0.3-0.8c0-0.3-0.1-0.6-0.3-0.8c-0.2-0.2-0.5-0.3-0.9-0.3h-1.2L181.9,101L181.9,101z"/>
						</g>
						<g>
							<path class="st1" d="M189.8,103.8h3.7v1.2h-5.6v-0.9l3.7-5.3h-3.6v-1.2h5.5v0.9L189.8,103.8z"/>
						</g>
						<g>
							<path class="st1" d="M200.1,101.8h-2.9v2h3.4v1.2h-5v-7.4h4.9v1.2h-3.4v1.8h2.9L200.1,101.8L200.1,101.8z"/>
						</g>
						<g>
							<path class="st1" d="M204.9,102l-0.8,0.9v2.1h-1.5v-7.4h1.5v3.3l0.7-0.9l1.9-2.4h1.9l-2.6,3.3l2.7,4.1h-1.8L204.9,102z"/>
						</g>
						<g>
							<path class="st1" d="M214.8,101.8h-2.9v2h3.4v1.2h-5v-7.4h4.9v1.2h-3.4v1.8h2.9L214.8,101.8L214.8,101.8z"/>
						</g>
						<g>
							<path class="st1" d="M220.1,102.3h-1.2v2.7h-1.5v-7.4h2.7c0.9,0,1.5,0.2,2,0.6c0.5,0.4,0.7,0.9,0.7,1.6
								c0,0.5-0.1,0.9-0.3,1.3c-0.2,0.3-0.5,0.6-1,0.8l1.6,3v0.1h-1.6L220.1,102.3z M218.9,101h1.2c0.4,0,0.7-0.1,0.9-0.3
								s0.3-0.5,0.3-0.8c0-0.3-0.1-0.6-0.3-0.8c-0.2-0.2-0.5-0.3-0.9-0.3h-1.2L218.9,101L218.9,101z"/>
						</g>
						<g>
							<path class="st1" d="M225.1,105v-7.4h2.3c0.6,0,1.2,0.1,1.7,0.4c0.5,0.3,0.9,0.7,1.2,1.2c0.3,0.5,0.4,1.2,0.4,1.8v0.3
								c0,0.7-0.1,1.3-0.4,1.8c-0.3,0.5-0.7,0.9-1.2,1.2c-0.5,0.3-1.1,0.4-1.7,0.4L225.1,105L225.1,105z M226.6,98.8v4.9h0.7
								c0.6,0,1.1-0.2,1.4-0.6c0.3-0.4,0.5-0.9,0.5-1.7v-0.4c0-0.8-0.2-1.3-0.5-1.7c-0.3-0.4-0.8-0.6-1.4-0.6H226.6z"/>
						</g>
					</g>
				</g>
			</g>
		</g>
		<g>
			<path class="colour-class" d="M233.5,39.5h-9.3c-0.4,0-0.8,0.3-0.8,0.8v27c0,4.2-3.2,7.8-7.4,8c-4.5,0.2-8.2-3.4-8.2-7.8V40.3
				c0-0.4-0.3-0.8-0.8-0.8h-9.3c-0.4,0-0.8,0.3-0.8,0.8v26.8c0,2.9,0.7,5.7,1.8,8.2h-31c4.6-15.1,17.4-21.9,24.6-24.6l0-10.4
				c0-0.4-0.3-0.8-0.8-0.8h-86.5c-0.4,0-0.8,0.3-0.8,0.8v27.5c0,4.1-3,7.6-7,8c-4.6,0.4-8.6-3.2-8.6-7.8V40.3c0-0.4-0.3-0.8-0.8-0.8
				H77.9c0,0-5.5,3.6-13.4,13.5c-0.7,0.8-1.3,1.7-2,2.6c-2.7-4-6.7-9.6-11.6-15.9c-0.1-0.2-0.4-0.3-0.6-0.3h-12
				c-0.6,0-1,0.8-0.6,1.3c9.5,11.5,16.6,22.2,18.9,25.6c-2.2,5.2-4.2,11.4-5.4,18.8c-0.1,0.5,0.3,0.9,0.8,0.9h9.4
				c0.4,0,0.7-0.3,0.8-0.7c3-16.2,10.7-26.6,15.7-31.8v13.9c0,10.2,7.9,18.8,18.1,19.1c10.6,0.3,19.2-8.2,19.2-18.7V50.7h18.9
				c-6.1,5.6-11.2,10.7-16.3,24.6v10.1c0,0.4,0.3,0.8,0.8,0.8H148c0.9,0,1.6-0.7,1.6-1.6v-7.6c0-0.9-0.7-1.6-1.6-1.6h-17.5
				c4.3-12.4,13.9-20.6,20-24.6l22.9,0c-6.8,3.2-14.8,10.3-19.8,24.6v10.1c0,0.4,0.3,0.8,0.8,0.8l60.6,0
				c10.6,0.3,19.2-8.2,19.2-18.7V40.3C234.2,39.9,233.9,39.5,233.5,39.5z"/>
		</g>
		<g>
			<g>
				<g>
					<path class="colour-class" d="M320.5,44.3l-5.8,5.8c-0.5,0.5-1.3,0.5-1.9,0c-14-13-36-12.7-49.7,0.9s-14,35.7-0.9,49.7
						c0.5,0.5,0.5,1.4,0,1.9l-5.8,5.8c-0.5,0.5-1.4,0.5-2,0c-17.3-18.3-16.9-47.3,1-65.2s46.9-18.2,65.2-1
						C321.1,42.9,321.1,43.8,320.5,44.3z"/>
				</g>
			</g>
			<g>
				<path class="colour-class" d="M270.1,93.1l-6-12.9c-0.3-0.6,0.2-1.4,0.9-1.4h16.8c0.8,0,1.3,1,0.7,1.6l-10.8,12.9
					C271.3,93.9,270.4,93.7,270.1,93.1z M268.9,82.7l2.4,5.2c0.1,0.3,0.5,0.4,0.8,0.1l4.3-5.2c0.2-0.3,0-0.7-0.3-0.7l-6.7,0
					C268.9,82.1,268.7,82.4,268.9,82.7z"/>
			</g>
			<g>
				<g>
					<path class="colour-class" d="M267.1,65.1l10-10c0.5-0.5,1.4-0.3,1.6,0.4l5.7,15.8c0.3,0.8-0.5,1.5-1.3,1.3l-15.8-5.7
						C266.7,66.5,266.6,65.6,267.1,65.1z"/>
				</g>
			</g>
			<g>
				<g>
					<path class="colour-class" d="M292.2,52.1l12.9,6c0.6,0.3,0.8,1.2,0.2,1.6l-12.9,10.8c-0.6,0.5-1.6,0.1-1.6-0.7l0-16.8
						C290.8,52.3,291.6,51.8,292.2,52.1z"/>
				</g>
			</g>
		</g>
	</g>
</g>
</svg>
